{"title":"Star Wars Hexalogy (PSP + Ipod touch + Zune)","uid":5679288,"size":3062701265,"categoryP":"video","categoryS":"handheld","magnet":"?xt=urn:btih:d57f0c7e133cf864b339f68e90ab1e6f1f11bd9d&amp;dn=Star+Wars+Hexalogy+%28PSP+%2B+Ipod+touch+%2B+Zune%29&amp;tr=udp%3A%2F%2Ftracker.openbittorrent.com%3A80&amp;tr=udp%3A%2F%2Fopen.demonii.com%3A1337&amp;tr=udp%3A%2F%2Ftracker.coppersurfer.tk%3A6969&amp;tr=udp%3A%2F%2Fexodus.desync.com%3A6969","seeders":0,"leechers":0,"uploader":"on.off.on","files":12,"time":1278720257,"description":"Star Wars Hexalogy\n &lt;a href=&quot;\nhttp://www.imdb.com/title/tt0076759/&quot; rel=&quot;nofollow&quot; target=&quot;_NEW&quot;&gt;\nhttp://www.imdb.com/title/tt0076759/&lt;/a&gt;\n &lt;a href=&quot;\nhttp://www.imdb.com/title/tt0080684/&quot; rel=&quot;nofollow&quot; target=&quot;_NEW&quot;&gt;\nhttp://www.imdb.com/title/tt0080684/&lt;/a&gt;\n &lt;a href=&quot;\nhttp://www.imdb.com/title/tt0086190/&quot; rel=&quot;nofollow&quot; target=&quot;_NEW&quot;&gt;\nhttp://www.imdb.com/title/tt0086190/&lt;/a&gt;\n &lt;a href=&quot;\nhttp://www.imdb.com/title/tt0120915/&quot; rel=&quot;nofollow&quot; target=&quot;_NEW&quot;&gt;\nhttp://www.imdb.com/title/tt0120915/&lt;/a&gt;\n &lt;a href=&quot;\nhttp://www.imdb.com/title/tt0121766/&quot; rel=&quot;nofollow&quot; target=&quot;_NEW&quot;&gt;\nhttp://www.imdb.com/title/tt0121766/&lt;/a&gt;\n &lt;a href=&quot;\nhttp://www.imdb.com/title/tt0121765/&quot; rel=&quot;nofollow&quot; target=&quot;_NEW&quot;&gt;\nhttp://www.imdb.com/title/tt0121765/&lt;/a&gt;\n\n\n\nSource  :\n\nStar.Wars.Episode.I.The.Phantom.Menace.1999.1080p.HDTV.x264-hV\n\nStar.Wars.Episode.II.Attack.Of.The.Clones.2002.1080p.HDTV.x264-hV\n\nStar.Wars.Episode.III.Revenge.Of.The.Sith.2005.1080p.HDTV.x264-hV\n\nStar.Wars.Episode.IV.A.New.Hope.1977.1080p.HDTV.x264-hV\n\nStar.Wars.Episode.V.The.Empire.Strikes.Back.1980.1080p.HDTV.x264-hv\n\nStar.Wars.Episode.VI.Return.Of.The.Jedi.1983.1080p.HDTV.x264-hV\n\n\nInfo Episode I:\n\nID                               : 1\nFormat                           : AVC\nFormat/Info                      : Advanced Video Codec\nFormat profile                   : &lt;a class=&quot;__cf_email__&quot; href=&quot;/cdn-cgi/l/email-protection&quot; data-cfemail=&quot;286a495b4d4441464d68641a0618&quot;&gt;[email&amp;#160;protected]&lt;/a&gt;&lt;script cf-hash='f9e31' type=&quot;text/javascript&quot;&gt;\n/* &lt;![CDATA[ */!function(){try{var t=&quot;currentScript&quot;in document?document.currentScript:function(){for(var t=document.getElementsByTagName(&quot;script&quot;),e=t.length;e--;)if(t[e].getAttribute(&quot;cf-hash&quot;))return t[e]}();if(t&amp;&amp;t.previousSibling){var e,r,n,i,c=t.previousSibling,a=c.getAttribute(&quot;data-cfemail&quot;);if(a){for(e=&quot;&quot;,r=parseInt(a.substr(0,2),16),n=2;a.length-n;n+=2)i=parseInt(a.substr(n,2),16)^r,e+=String.fromCharCode(i);e=document.createTextNode(e),c.parentNode.replaceChild(e,c)}}}catch(u){}}();/* ]]&gt; */&lt;/script&gt;\nFormat settings, CABAC           : No\nFormat settings, ReFrames        : 3 frames\nCodec ID                         : avc1\nCodec ID/Info                    : Advanced Video Coding\nDuration                         : 2h 10mn\nBit rate mode                    : Variable\nBit rate                         : 400 Kbps\nWidth                            : 480 pixels\nHeight                           : 208 pixels\nDisplay aspect ratio             : 2.35:1\nFrame rate mode                  : Constant\nFrame rate                       : 25.000 fps\nColor space                      : YUV\nChroma subsampling               : 4:2:0\nBit depth                        : 8 bits\nScan type                        : Progressive\nBits/(Pixel*Frame)               : 0.160\nStream size                      : 373 MiB (75%)\nWriting library                  : x264 core 79\n\nID                               : 2\nFormat                           : AAC\nFormat/Info                      : Advanced Audio Codec\nFormat version                   : Version 4\nFormat profile                   : LC\nFormat settings, SBR             : No\nCodec ID                         : 40\nDuration                         : 2h 10mn\nBit rate mode                    : Variable\nBit rate                         : 128 Kbps\nMaximum bit rate                 : 167 Kbps\nChannel(s)                       : 2 channels\nChannel positions                : Front: L R\nSampling rate                    : 48.0 KHz\nStream size                      : 119 MiB (24%)\nLanguage                         : English\n\n\nScreens:\n &lt;a href=&quot;\nhttp://img257.imageshack.us/img257/3945/starwarsepisodeithephan.jpg&quot; rel=&quot;nofollow&quot; target=&quot;_NEW&quot;&gt;\nhttp://img257.imageshack.us/img257/3945/starwarsepisodeithephan.jpg&lt;/a&gt;\n &lt;a href=&quot;\nhttp://img805.imageshack.us/img805/1756/starwarsepisodeiiattack.jpg&quot; rel=&quot;nofollow&quot; target=&quot;_NEW&quot;&gt;\nhttp://img805.imageshack.us/img805/1756/starwarsepisodeiiattack.jpg&lt;/a&gt;\n &lt;a href=&quot;\nhttp://img192.imageshack.us/img192/140/starwarsepisodeiiireveng.jpg&quot; rel=&quot;nofollow&quot; target=&quot;_NEW&quot;&gt;\nhttp://img192.imageshack.us/img192/140/starwarsepisodeiiireveng.jpg&lt;/a&gt;\n &lt;a href=&quot;\nhttp://img411.imageshack.us/img411/2125/starwarsepisodeivanewhow.jpg&quot; rel=&quot;nofollow&quot; target=&quot;_NEW&quot;&gt;\nhttp://img411.imageshack.us/img411/2125/starwarsepisodeivanewhow.jpg&lt;/a&gt;\n &lt;a href=&quot;\nhttp://img96.imageshack.us/img96/4818/starwarsepisodevtheempiv.jpg&quot; rel=&quot;nofollow&quot; target=&quot;_NEW&quot;&gt;\nhttp://img96.imageshack.us/img96/4818/starwarsepisodevtheempiv.jpg&lt;/a&gt;\n &lt;a href=&quot;\nhttp://img341.imageshack.us/img341/338/starwarsepisodevireturn.jpg&quot; rel=&quot;nofollow&quot; target=&quot;_NEW&quot;&gt;\nhttp://img341.imageshack.us/img341/338/starwarsepisodevireturn.jpg&lt;/a&gt;\n\n\n\n\nPLEASE LET THE TORRENT SEED AND SHARE IT WITH ALL YOU KNOW!\n\nLet me know what I can do to be your trusted source of Handheld videos.\n &lt;a href=&quot;\nhttp://thepiratebay.se/user/on.off.on/&quot; rel=&quot;nofollow&quot; target=&quot;_NEW&quot;&gt;\nhttp://thepiratebay.se/user/on.off.on/&lt;/a&gt; -OOO","torrent":{"xt":"urn:btih:d57f0c7e133cf864b339f68e90ab1e6f1f11bd9d","amp;dn":"Star+Wars+Hexalogy+%28PSP+%2B+Ipod+touch+%2B+Zune%29","amp;tr":["udp%3A%2F%2Ftracker.openbittorrent.com%3A80","udp%3A%2F%2Fopen.demonii.com%3A1337","udp%3A%2F%2Ftracker.coppersurfer.tk%3A6969","udp%3A%2F%2Fexodus.desync.com%3A6969"],"infoHash":"d57f0c7e133cf864b339f68e90ab1e6f1f11bd9d","infoHashBuffer":{"type":"Buffer","data":[213,127,12,126,19,60,248,100,179,57,246,142,144,171,30,111,31,17,189,157]},"announce":[],"urlList":[]}}